<svg version="1.1" xmlns="http://www.w3.org/2000/svg" xmlns:xlink="http://www.w3.org/1999/xlink" x="0px"
	 y="0px" viewBox="0 0 142 200" style="enable-background:new 0 0 142 200;" xml:space="preserve">
<path style="fill:#FF1D25;" d="M83.467,70.658C83.123,77.254,77.682,82.5,71,82.5c-5.714,0-10.523-3.839-12.013-9.075
	c-23.392,9.726-35.446,38.437-22.268,62.91L71,200l39.345-73.069C123.035,103.364,108.46,75.226,83.467,70.658z"/>
<radialGradient id="SVGID_1_" cx="71" cy="71.8018" r="72.6614" fx="69.6444" fy="105.8281"
                gradientUnits="userSpaceOnUse">
	<stop  offset="0" style="stop-color:#FFCDCD"/>
	<stop  offset="0.0659" style="stop-color:#FFB8B9"/>
	<stop  offset="0.2839" style="stop-color:#FF767A"/>
	<stop  offset="0.4673" style="stop-color:#FF464C"/>
	<stop  offset="0.6068" style="stop-color:#FF2830"/>
	<stop  offset="0.6858" style="stop-color:#FF1D25"/>
</radialGradient>
<path style="fill:url(#SVGID_1_);stroke:#FF0000;stroke-miterlimit:10;" d="M138.992,53.973
	c-5.935-25.182-25.783-45.03-50.966-50.966C39.343-8.467-3.681,30.911,1.411,78.688c3.473,32.59,29.311,58.428,61.901,61.901
	C111.089,145.681,150.467,102.657,138.992,53.973z M71,82.5c-6.904,0-12.5-5.596-12.5-12.5S64.096,57.5,71,57.5S83.5,63.096,83.5,70
	S77.904,82.5,71,82.5z"/>
</svg>
